<?xml version="1.0" encoding="UTF-8"?>
<svg id="Camada_1" data-name="Camada 1" xmlns="http://www.w3.org/2000/svg" viewBox="0 0 105.42 105.42">
  <defs>
    <style>
      .cls-1 {
        fill: #1d1d1b;
      }
    </style>
  </defs>
  <path class="cls-1" d="m52.71,105.42C23.65,105.42,0,81.78,0,52.71S23.65,0,52.71,0s52.71,23.65,52.71,52.71-23.65,52.71-52.71,52.71Zm0-98.42C27.51,7,7,27.51,7,52.71s20.51,45.71,45.71,45.71,45.71-20.51,45.71-45.71S77.92,7,52.71,7Z"/>
  <path class="cls-1" d="m52.71,84.09c-1.93,0-3.5-1.57-3.5-3.5V23.62c0-1.93,1.57-3.5,3.5-3.5s3.5,1.57,3.5,3.5v56.97c0,1.93-1.57,3.5-3.5,3.5Z"/>
  <path class="cls-1" d="m81.2,55.61H24.23c-1.93,0-3.5-1.57-3.5-3.5s1.57-3.5,3.5-3.5h56.97c1.93,0,3.5,1.57,3.5,3.5s-1.57,3.5-3.5,3.5Z"/>
</svg>