<?xml version="1.0" encoding="UTF-8"?>
<svg id="Camada_1" data-name="Camada 1" xmlns="http://www.w3.org/2000/svg" viewBox="0 0 195.75 192.91">
  <defs>
    <style>
      .cls-1 {
        fill: #fff;
      }

      .cls-2 {
        fill: #182030;
      }

      .cls-3 {
        fill: #ffdc7b;
      }
    </style>
  </defs>
  <g>
    <circle class="cls-3" cx="91.58" cy="107.21" r="71.31"/>
    <path class="cls-2" d="m91.58,180.99c-40.68,0-73.77-33.1-73.77-73.77S50.9,33.44,91.58,33.44s73.77,33.1,73.77,73.77-33.1,73.77-73.77,73.77Zm0-142.63c-37.97,0-68.86,30.89-68.86,68.86s30.89,68.86,68.86,68.86,68.86-30.89,68.86-68.86-30.89-68.86-68.86-68.86Z"/>
  </g>
  <g>
    <circle class="cls-3" cx="91.58" cy="107.21" r="55.48"/>
    <path class="cls-2" d="m91.58,165.15c-31.95,0-57.94-25.99-57.94-57.94s25.99-57.94,57.94-57.94,57.94,25.99,57.94,57.94-25.99,57.94-57.94,57.94Zm0-110.96c-29.24,0-53.02,23.79-53.02,53.02s23.79,53.02,53.02,53.02,53.02-23.79,53.02-53.02-23.79-53.02-53.02-53.02Z"/>
  </g>
  <g>
    <path class="cls-3" d="m92.16,131.26c-.24,1.87,1.94,3.43,4.19,2.9,4.93-1.16,7.81-4.44,7.81-9.1,0-4.19-.49-7.08-8.71-10l-1.12-.41-2.16,16.61Zm-.65-48.08c.25-1.97-2.13-3.47-4.47-2.84-5.03,1.35-7.04,4.59-7.04,8.19,0,2.88,1.63,5.06,5.07,6.83,2.09,1.08,4.87-.05,5.13-2.03l1.31-10.15Zm6.8.88l-1.69,12.92c-.16,1.2.7,2.35,2.1,2.79,14.93,4.72,22,10.34,22,20.04s-9.78,18.77-27.07,20.12c-1.6.13-2.87,1.14-3.02,2.42l-.58,4.85c-.17,1.39-1.62,2.45-3.36,2.45h0c-2,0-3.56-1.39-3.36-2.98l.87-6.79h0c-7.58-.61-13.71-2.49-17.37-3.56-1.05-.31-1.86-1-2.12-1.87-.91-2.96-1.94-8.38-2.71-12.6-.23-1.25.66-2.46,2.13-2.91l.96-.3c1.75-.54,3.71.16,4.37,1.57,1.8,3.86,4.74,9.17,10.88,12.16,2.11,1.02,4.83-.09,5.09-2.06l2.27-17.67h0c-17.3-5.27-23.39-10.73-23.39-19.88,0-10.64,11.18-17.31,25.54-18.27,1.62-.11,2.91-1.12,3.07-2.41l.37-2.92c.18-1.38,1.63-2.43,3.36-2.43h.14c2,0,3.57,1.39,3.36,2.98l-.63,4.81.29.02c4.93.28,9.44.84,12.88,1.37,1.42.22,2.49,1.14,2.69,2.28.45,2.67,1.09,6.54,1.76,10.28.26,1.46-.99,2.82-2.82,3.05l-.45.06c-1.61.2-3.15-.54-3.7-1.77-1.16-2.56-2.93-5.58-6.54-7.66-2.11-1.21-5.07-.15-5.34,1.92Z"/>
    <path class="cls-2" d="m86.7,151.63c-1.68,0-3.22-.66-4.24-1.82-.85-.96-1.23-2.16-1.07-3.38l.61-4.78c-6.54-.74-11.92-2.32-15.25-3.3l-.46-.14c-1.7-.5-2.99-1.69-3.45-3.18-.96-3.13-2.03-8.82-2.76-12.83-.41-2.23,1.06-4.4,3.49-5.14l.96-.3c2.7-.83,5.66.32,6.73,2.62,1.79,3.84,4.54,8.59,9.96,11.22.63.31,1.37.2,1.82-.04.26-.14.44-.33.46-.49l2.06-16.04c-16.66-5.31-23.19-11.35-23.19-21.27,0-11.18,10.74-19.12,27.37-20.23.78-.05,1.22-.47,1.25-.7l.37-2.93c.3-2.36,2.59-4.15,5.31-4.15h.14c1.68,0,3.23.66,4.24,1.82.85.96,1.23,2.17,1.07,3.39l-.36,2.73c4.58.33,8.58.86,11.25,1.27,2.25.35,3.99,1.91,4.33,3.9l.36,2.16c.4,2.39.89,5.29,1.39,8.11.2,1.14-.07,2.3-.78,3.27-.83,1.13-2.19,1.89-3.72,2.09l-.45.06c-2.47.31-4.83-.89-5.74-2.91-.99-2.18-2.53-4.93-5.73-6.76-.64-.37-1.42-.29-1.91-.04-.22.11-.47.3-.5.51l-1.69,12.92c-.02.17.22.49.74.66,11.56,3.65,23.38,9.11,23.38,21.92,0,9.87-8.93,20.53-28.88,22.09-.77.06-1.2.48-1.22.7l-.58,4.85c-.28,2.38-2.57,4.18-5.31,4.18Zm-20.38-31.2c-.2,0-.42.03-.63.1l-.96.3c-.51.16-.81.48-.77.68.71,3.91,1.75,9.45,2.65,12.38.04.14.29.41.8.56l.46.14c3.76,1.11,9.45,2.78,16.51,3.35l2.06.17-1.14,8.84s-.02.12.12.28c.2.23.65.48,1.28.48.87,0,1.38-.46,1.41-.71l.58-4.85c.26-2.21,2.29-3.95,4.82-4.15,14.87-1.16,25.26-8.63,25.26-18.16,0-8.27-5.98-13.53-20.63-18.16-2.32-.73-3.74-2.76-3.46-4.92l1.69-12.92c.2-1.5,1.16-2.79,2.65-3.52,1.77-.88,3.93-.82,5.62.16,4.22,2.43,6.22,6.04,7.35,8.55.17.38.89.72,1.67.63l.45-.06c.54-.07.9-.31,1.05-.51.1-.13.09-.21.08-.24-.51-2.83-.99-5.74-1.4-8.15l-.36-2.15c-.04-.21-.39-.57-1.05-.67-2.93-.45-7.52-1.05-12.7-1.35l-2.4-.14.9-6.91s.02-.12-.12-.28c-.2-.23-.65-.48-1.28-.48h-.14c-.8,0-1.37.42-1.41.71l-.37,2.93c-.28,2.22-2.34,3.95-4.89,4.12-11.8.79-23.7,6.14-23.7,16.31,0,6.98,3.68,12.42,21.99,18l1.59.48-2.49,19.32c-.18,1.44-1.09,2.7-2.49,3.45-1.65.89-3.72.94-5.41.12-6.53-3.17-9.74-8.66-11.81-13.09-.14-.3-.7-.61-1.37-.61Zm29.14,15.8c-1.39,0-2.76-.5-3.77-1.41-1.13-1.02-1.67-2.41-1.48-3.82l2.48-19.06,3.44,1.27c9.26,3.28,10,7.14,10,11.84,0,5.52-3.48,9.63-9.32,11.01-.44.1-.89.16-1.34.16Zm-1.35-4.72c-.02.16.15.33.22.39.29.26.87.5,1.57.34,4.06-.96,6.29-3.51,6.29-7.18,0-3.14,0-5.27-6.23-7.71l-1.84,14.16Zm-7.28-33.77c-.92,0-1.84-.21-2.66-.63-4.13-2.12-6.13-4.93-6.13-8.58,0-4.97,3.1-8.65,8.49-10.09,1.93-.52,4.01-.07,5.42,1.17,1.15,1,1.7,2.4,1.51,3.82l-1.31,10.15c-.19,1.46-1.12,2.73-2.56,3.49-.85.45-1.81.67-2.76.67Zm1.31-15.58c-.19,0-.39.02-.59.08-3.7.99-5.58,3.11-5.58,6.29,0,1.41.45,3.25,4,5.08.61.31,1.34.21,1.8-.02.27-.14.46-.34.48-.51l1.31-10.15c.01-.11-.05-.23-.2-.36-.26-.23-.7-.41-1.22-.41Z"/>
  </g>
  <path class="cls-2" d="m58.35,22.79c-1.36,0-2.46-1.1-2.46-2.46V2.46c0-1.36,1.1-2.46,2.46-2.46s2.46,1.1,2.46,2.46v17.87c0,1.36-1.1,2.46-2.46,2.46Z"/>
  <g>
    <line class="cls-2" x1="24.5" y1="20.33" x2="35.63" y2="31.46"/>
    <path class="cls-2" d="m35.63,33.91c-.63,0-1.26-.24-1.74-.72l-11.13-11.13c-.96-.96-.96-2.52,0-3.48.96-.96,2.52-.96,3.48,0l11.13,11.13c.96.96.96,2.52,0,3.48-.48.48-1.11.72-1.74.72Z"/>
  </g>
  <path class="cls-2" d="m11.8,54.19h-6.58c-1.36,0-2.46-1.1-2.46-2.46s1.1-2.46,2.46-2.46h6.58c1.36,0,2.46,1.1,2.46,2.46s-1.1,2.46-2.46,2.46Z"/>
  <path class="cls-2" d="m193.29,121.27h-11.75c-1.36,0-2.46-1.1-2.46-2.46s1.1-2.46,2.46-2.46h11.75c1.36,0,2.46,1.1,2.46,2.46s-1.1,2.46-2.46,2.46Z"/>
  <g>
    <line class="cls-2" x1="173.07" y1="152.75" x2="188.14" y2="167.81"/>
    <path class="cls-2" d="m188.14,170.27c-.63,0-1.26-.24-1.74-.72l-15.06-15.07c-.96-.96-.96-2.52,0-3.48.96-.96,2.52-.96,3.48,0l15.06,15.07c.96.96.96,2.52,0,3.48-.48.48-1.11.72-1.74.72Z"/>
  </g>
  <path class="cls-2" d="m143,192.91c-1.36,0-2.46-1.1-2.46-2.46v-11.93c0-1.36,1.1-2.46,2.46-2.46s2.46,1.1,2.46,2.46v11.93c0,1.36-1.1,2.46-2.46,2.46Z"/>
  <path class="cls-1" d="m32.53,124.62l-2.48-14.29-2.48,14.29c-.83,4.8-3.77,8.47-7.66,9.59l-13.46,3.88,13.48,3.83c3.86,1.1,6.88,4.88,7.7,9.64l2.43,14.21,2.45-14.19c.82-4.73,3.83-8.5,7.67-9.6l13.51-3.88-13.5-3.89c-3.89-1.12-6.82-4.8-7.66-9.59Z"/>
  <path class="cls-2" d="m165.97,102.34c-2.38-37.15-32.37-67.14-69.52-69.52C51.51,29.95,14.31,67.15,17.18,112.08c.34,5.32,1.25,10.48,2.66,15.45.28.97-.21,2.05-1.17,2.33,0,0-.01,0-.02,0l-16.14,4.65C1.01,134.95,0,136.39,0,138.1c0,1.71,1.02,3.15,2.52,3.58l16.17,4.59c2.2.62,3.95,3,4.47,6.05l3.57,20.82c.3,1.77,1.67,3.01,3.32,3.01h0c1.65,0,3.02-1.23,3.32-3l2.25-13c.22-1.29,1.81-1.79,2.72-.85,12.49,12.77,29.5,21.1,48.36,22.3,44.94,2.87,82.14-34.33,79.27-79.26Zm-71.16-60.36c0-1.53,1.32-2.71,2.85-2.58,14.22,1.26,27.19,6.91,37.56,15.59,1.17.98,1.26,2.75.18,3.83l-2.98,2.98c-.93.93-2.43,1.03-3.45.19-8.83-7.31-19.82-12.1-31.87-13.23-1.31-.12-2.3-1.25-2.3-2.57v-4.21Zm-46.87,13.01c10.36-8.67,23.34-14.32,37.56-15.59,1.52-.14,2.85,1.05,2.85,2.58v4.21c0,1.32-.99,2.45-2.3,2.57-12.04,1.13-23.04,5.91-31.87,13.23-1.02.84-2.51.75-3.45-.19l-2.98-2.98c-1.08-1.08-.99-2.85.18-3.83Zm-8.58,8.58c.98-1.17,2.75-1.26,3.83-.18l2.98,2.98c.93.93,1.02,2.43.18,3.45-7.4,8.93-12.2,20.08-13.25,32.29-.54-1.28-1.7-2.12-3.05-2.12-1.65,0-3.01,1.23-3.32,3l-.17.98h-2.98c.72-15.33,6.53-29.35,15.78-40.4Zm-13.92,46.87l-1.18,6.81c-.33-2.24-.57-4.51-.68-6.81h1.86Zm9.82,34.93c-1.35,1.68-2.33,3.82-2.74,6.2l-2.45,14.19-2.43-14.21c-.81-4.76-3.83-8.54-7.7-9.64l-13.48-3.83,13.46-3.88c.26-.08.52-.16.77-.27.38-.16.76-.34,1.12-.54h0c2.12-1.17,3.82-3.16,4.87-5.68h0c.2-.48.38-.98.53-1.49.15-.52.28-1.06.38-1.61l2.48-14.29,2.48,14.29c.1.57.23,1.13.39,1.67.07.23.15.44.23.66.1.3.2.6.32.88.12.28.26.54.39.81.1.2.19.4.3.59.17.3.36.59.56.87.09.13.17.25.26.38.23.31.48.6.73.88.07.07.13.14.2.21.29.3.59.58.91.83.04.03.08.07.12.1.34.27.7.52,1.07.74.02.01.04.02.06.03.39.23.79.43,1.21.6.3.12.59.25.9.34l8.21,2.37h0s5.29,1.53,5.29,1.53l-10.1,2.9h0l-3.41.98c-.48.14-.94.32-1.39.53-.4.19-.78.42-1.15.67-.05.03-.1.05-.14.08-.83.57-1.58,1.29-2.24,2.11Zm10.91,2.68l-2.98,2.98c-1.08,1.08-2.85.99-3.83-.18-.06-.08-.13-.15-.19-.23-.72-.87-.72-2.18.09-2.98.64-.64,1.38-1.1,2.17-1.32l3.53-1.01c1.15-.33,2.23.81,1.77,1.91-.13.3-.31.58-.56.83Zm42.18,24.39c0,1.53-1.32,2.71-2.85,2.58-14.22-1.26-27.19-6.91-37.56-15.59-1.17-.98-1.26-2.75-.18-3.83l2.98-2.98c.93-.93,2.43-1.03,3.45-.19,8.83,7.31,19.82,12.1,31.87,13.23,1.31.12,2.3,1.25,2.3,2.57v4.21Zm-32.89-27.54c-.93-.89-.54-2.45.69-2.8l1.47-.42c1.5-.43,2.51-1.87,2.51-3.58,0-1.71-1.01-3.15-2.51-3.58l-7.84-2.26c-3.19-.92-5.8-3.27-6.99-6.37-2.84-7.4-4.05-15.6-3.17-24.16,2.56-25,22.2-44.34,47.23-46.55,32.53-2.88,59.67,24.27,56.77,56.81-2.21,24.82-21.27,44.37-46.04,47.14-16.34,1.83-31.4-3.94-42.12-14.22Zm79.76,14.53c-10.36,8.67-23.34,14.32-37.56,15.59-1.52.14-2.85-1.05-2.85-2.58v-4.21c0-1.32.99-2.45,2.3-2.57,12.04-1.13,23.04-5.91,31.87-13.23,1.02-.84,2.51-.75,3.45.19l2.98,2.98c1.08,1.08.99,2.85-.18,3.83Zm8.58-8.58c-.98,1.17-2.75,1.26-3.83.18l-2.98-2.98c-.93-.93-1.03-2.43-.19-3.45,7.31-8.83,12.1-19.82,13.23-31.87.12-1.31,1.25-2.3,2.57-2.3h4.21c1.53,0,2.71,1.32,2.58,2.85-1.26,14.22-6.91,27.19-15.59,37.56Zm13.01-46.87h-4.21c-1.32,0-2.45-.99-2.57-2.3-1.13-12.04-5.91-23.04-13.23-31.87-.84-1.02-.75-2.51.19-3.44l2.98-2.98c1.08-1.08,2.85-.99,3.83.18,8.67,10.36,14.32,23.34,15.59,37.56.14,1.52-1.05,2.85-2.58,2.85Z"/>
</svg>