<?xml version="1.0" encoding="UTF-8"?>
<svg id="Camada_1" data-name="Camada 1" xmlns="http://www.w3.org/2000/svg" viewBox="0 0 203.15 186.83">
  <defs>
    <style>
      .cls-1 {
        fill: #79d17c;
      }

      .cls-2 {
        fill: #fff;
      }

      .cls-3 {
        fill: #ff7878;
      }

      .cls-4 {
        fill: #182030;
      }
    </style>
  </defs>
  <g>
    <circle class="cls-3" cx="108.39" cy="120.82" r="59.86"/>
    <path class="cls-4" d="m108.39,183.69c-34.66,0-62.87-28.2-62.87-62.87s28.2-62.87,62.87-62.87,62.87,28.2,62.87,62.87-28.2,62.87-62.87,62.87Zm0-119.72c-31.35,0-56.86,25.5-56.86,56.85s25.51,56.86,56.86,56.86,56.85-25.51,56.85-56.86-25.5-56.85-56.85-56.85Z"/>
  </g>
  <path class="cls-1" d="m148.89,85.78c6.42-5.77,10.59-13.98,11.47-22.57.88-8.59-1.56-17.47-6.68-24.42-3.88-5.25-9.13-9.32-13.4-14.25-5.54-6.38-9.34-14.11-12.1-22.09,7.08,1.31,12.34,6.11,17.93,10.26,12.38,9.18,31.6,13.27,37.2,29.26,4.87,13.9-1.89,29.87-14.34,37.27-3.14,1.87-6.58,3.19-9.99,4.5-3.31,1.27-5.97,2.04-9.28,3.32"/>
  <path class="cls-4" d="m105.78,29.41h-62.61c-1.38,0-2.5-1.12-2.5-2.5s1.12-2.5,2.5-2.5h62.61c1.38,0,2.5,1.12,2.5,2.5s-1.12,2.5-2.5,2.5Z"/>
  <path class="cls-4" d="m140.65,52.73h-28.21c-1.38,0-2.5-1.12-2.5-2.5s1.12-2.5,2.5-2.5h28.21c1.38,0,2.5,1.12,2.5,2.5s-1.12,2.5-2.5,2.5Z"/>
  <path class="cls-4" d="m31.37,92.93H3.16c-1.38,0-2.5-1.12-2.5-2.5s1.12-2.5,2.5-2.5h28.21c1.38,0,2.5,1.12,2.5,2.5s-1.12,2.5-2.5,2.5Z"/>
  <path class="cls-4" d="m57.27,168.81H13.05c-1.38,0-2.5-1.12-2.5-2.5s1.12-2.5,2.5-2.5h44.22c1.38,0,2.5,1.12,2.5,2.5s-1.12,2.5-2.5,2.5Z"/>
  <path class="cls-4" d="m200.47,81.2h-10.4c-1.38,0-2.5-1.12-2.5-2.5s1.12-2.5,2.5-2.5h10.4c1.38,0,2.5,1.12,2.5,2.5s-1.12,2.5-2.5,2.5Z"/>
  <path class="cls-4" d="m200.47,162.26h-6.27c-1.38,0-2.5-1.12-2.5-2.5s1.12-2.5,2.5-2.5h6.27c1.38,0,2.5,1.12,2.5,2.5s-1.12,2.5-2.5,2.5Z"/>
  <g>
    <path class="cls-2" d="m152.57,138.85l3.06,13.66c.57,2.55,2.56,4.54,5.12,5.12l13.66,3.06c.98.22.98,1.62,0,1.84l-13.67,3.05c-2.56.57-4.55,2.57-5.12,5.12l-3.04,13.64c-.22.99-1.63.99-1.84,0l-3.01-13.65c-.57-2.57-2.57-4.57-5.14-5.14l-13.66-3.01c-.99-.22-.99-1.62,0-1.84l13.64-3.05c2.55-.57,4.55-2.56,5.12-5.12l3.05-13.67c.22-.98,1.62-.99,1.84,0Z"/>
    <path class="cls-4" d="m151.65,186.83h0c-1.27,0-2.36-.87-2.63-2.12l-3.01-13.65c-.42-1.89-1.91-3.39-3.81-3.81l-13.66-3.01c-1.24-.27-2.12-1.36-2.12-2.63s.86-2.36,2.11-2.64l13.64-3.05c1.88-.42,3.37-1.91,3.79-3.79l3.05-13.67c.28-1.24,1.36-2.11,2.63-2.11h0c1.27,0,2.35.87,2.63,2.11h0s3.06,13.67,3.06,13.67c.42,1.88,1.91,3.37,3.79,3.79l13.66,3.06c1.24.28,2.11,1.36,2.11,2.63s-.87,2.36-2.11,2.63l-13.67,3.05c-1.88.42-3.37,1.91-3.79,3.79l-3.04,13.64c-.28,1.24-1.36,2.11-2.63,2.11Zm-18.8-25.23l10.1,2.23c3.22.71,5.77,3.25,6.48,6.48l2.23,10.09,2.25-10.08c.72-3.2,3.25-5.74,6.45-6.45l10.14-2.26-10.13-2.27c-3.2-.72-5.73-3.24-6.44-6.44l-2.27-10.14-2.27,10.14c-.72,3.2-3.25,5.73-6.45,6.45l-10.08,2.25Zm18.01-22.37h0s0,0,0,0h0Z"/>
  </g>
  <path class="cls-4" d="m76.12,90.57c-.78,0-1.57-.31-2.16-.91-1.16-1.19-1.13-3.1.07-4.25,2.68-2.59,5.66-4.89,8.88-6.83,7.31-4.41,15.65-6.86,24.14-7.08,1.65-.06,3.04,1.26,3.08,2.93.04,1.66-1.27,3.04-2.93,3.08-7.45.2-14.78,2.35-21.19,6.22-2.83,1.7-5.45,3.72-7.8,6-.58.57-1.34.85-2.09.85Z"/>
  <path class="cls-4" d="m65.32,106.76c-.37,0-.74-.07-1.1-.21-1.54-.61-2.3-2.36-1.69-3.9,1.22-3.08,2.75-6.05,4.56-8.82.91-1.39,2.77-1.78,4.16-.88,1.39.91,1.78,2.77.88,4.16-1.59,2.43-2.93,5.04-4,7.75-.47,1.18-1.6,1.9-2.8,1.9Z"/>
  <path class="cls-4" d="m162.25,85.11c5.77-2.31,11.24-5.14,15.61-9.88,6.12-6.63,9.8-15.63,9.52-24.71-.27-8.74-4.19-16.62-10.83-22.26-6.27-5.32-13.8-8.69-20.95-12.59-4.17-2.28-7.98-4.91-11.75-7.79-4.53-3.46-9.31-6.72-15.01-7.83-1.73-.34-3.76,1.14-3.08,3.08,2.12,6.08,4.76,12.03,8.33,17.4,3.65,5.48,8.37,9.83,12.96,14.49,4.32,4.39,7.79,9.28,9.57,15.24,1.69,5.65,1.88,11.67.41,17.39-.66,2.58-1.64,5.05-2.88,7.36-.47.87-1.64,1.07-2.36.39-12.16-11.62-28.94-18.43-47.29-17.32-31.81,1.92-57.4,27.87-58.91,59.71-1.71,36.04,27.12,65.91,62.79,65.91,13.51,0,26.04-4.29,36.3-11.57.63-.45,1.52-.12,1.68.64l2.64,11.96c.27,1.25,1.36,2.12,2.63,2.12h0c1.26,0,2.36-.88,2.63-2.11l3.04-13.64c.42-1.89,1.9-3.37,3.79-3.79l13.67-3.05c1.51-.34,2.46-1.86,1.99-3.47-.28-.94-1.11-1.6-2.06-1.81l-11.26-2.52c-1.37-.31-2.03-1.87-1.3-3.07,5.78-9.5,9.11-20.64,9.11-32.55s-3.56-23.8-9.69-33.5c-.5-.8-.19-1.86.69-2.21Zm8.24,76.5l-10.14,2.26c-3.22.72-5.73,3.23-6.45,6.45l-2.25,10.08-2.23-10.09c-.06-.25-.13-.51-.22-.75s-.18-.5-.28-.74c-.81-1.91-2.3-3.45-4.17-4.34-.28-.13-.56-.25-.85-.36-.32-.11-.64-.22-.97-.29l-10.1-2.23,10.08-2.25c3.22-.72,5.73-3.23,6.45-6.45l2.27-10.14,2.27,10.14c.07.32.17.62.28.92.05.14.1.28.15.41.8,1.95,2.3,3.53,4.19,4.45.28.13.56.26.86.37.32.11.64.22.97.29l10.13,2.27Zm-5.24-40.79c0,9.89-2.54,19.2-7,27.31-.45.81-1.66.64-1.86-.26l-2.1-9.39h0c0-1.17-.94-2.11-2.11-2.11h-.53c-1.26,0-2.36.88-2.63,2.11l-3.05,13.67c-.42,1.89-1.9,3.37-3.79,3.79l-13.64,3.05c-1.01.23-1.76.99-2.01,1.95,0,0,0,0,0,0-.57,1.91-2.74,9.13-3.87,12.86-.43,1.42-1.61,2.48-3.06,2.78-5.3,1.07-10.85,1.4-16.57.87-28.16-2.62-50.31-26.05-51.43-54.31-1.28-32.39,24.7-59.15,56.81-59.15,15.64,0,29.81,6.35,40.09,16.6.58.58.57,1.52,0,2.11-.44.46-.9.9-1.37,1.33-1.25,1.14,1.97,5.96,3.24,5.48,1.08-.41,2.16-.81,3.25-1.2.64-.23,1.37,0,1.76.56,6.22,9.12,9.88,20.12,9.88,31.97Zm-7.11-39.41c-.38.14-.81.02-1.06-.3,0,0,0,0,0-.01-.25-.32-.28-.75-.06-1.1,5.05-7.92,7.06-17.6,5.41-27.01-1.15-6.52-4.09-12.58-8.31-17.67-4.16-5.03-9.38-9.06-13.43-14.19-3.5-4.43-6.18-9.46-8.32-14.69,6.4,2.86,11.61,8.26,17.62,11.8,6.59,3.88,13.68,6.89,19.99,11.24,6.23,4.3,10.78,10.06,12.1,17.66,1.35,7.82-1.17,16.05-5.87,22.32-2.76,3.69-6.39,6.63-10.48,8.72-2.45,1.25-4.99,2.27-7.56,3.21Z"/>
</svg>