<?xml version="1.0" encoding="UTF-8"?>
<svg id="Camada_1" data-name="Camada 1" xmlns="http://www.w3.org/2000/svg" viewBox="0 0 178.09 192.91">
  <defs>
    <style>
      .cls-1 {
        fill: #79d17c;
      }

      .cls-2 {
        fill: #fff;
      }

      .cls-3 {
        fill: #c17a49;
      }

      .cls-4 {
        fill: #ff7878;
      }

      .cls-5 {
        fill: #182030;
      }

      .cls-6 {
        fill: #47b272;
      }

      .cls-7 {
        fill: #efac54;
      }

      .cls-8 {
        fill: #7a84ce;
      }

      .cls-9 {
        fill: #f7de9f;
      }

      .cls-10 {
        fill: #bdd5db;
      }

      .cls-11 {
        fill: #d8c49a;
      }
    </style>
  </defs>
  <g>
    <rect class="cls-11" x="115.56" y="69.07" width="59.62" height="120.93"/>
    <path class="cls-5" d="m177.67,192.5h-64.61v-125.92h64.61v125.92Zm-59.62-4.99h54.63v-115.95h-54.63v115.95Z"/>
  </g>
  <g>
    <rect class="cls-3" x="73.28" y="69.07" width="59.62" height="120.93"/>
    <path class="cls-5" d="m135.39,192.5h-64.61v-125.92h64.61v125.92Zm-59.62-4.99h54.63v-115.95h-54.63v115.95Z"/>
  </g>
  <path class="cls-10" d="m44.28,181.87l-4.82,6.69c-.66.91-1.71,1.45-2.83,1.45H10.49c-1.13,0-2.19-.55-2.84-1.47l-4.74-6.67v-67.64l4.74-6.67c.65-.92,1.71-1.47,2.84-1.47h26.14c1.12,0,2.17.54,2.83,1.45l4.82,6.69v67.64Z"/>
  <g>
    <rect class="cls-1" x="115.49" y="94.16" width="59.62" height="46.9"/>
    <path class="cls-5" d="m177.6,143.56h-64.61v-51.89h64.61v51.89Zm-59.62-4.99h54.63v-41.91h-54.63v41.91Z"/>
  </g>
  <g>
    <rect class="cls-6" x="73.21" y="94.16" width="59.62" height="46.9"/>
    <path class="cls-5" d="m135.32,143.56h-64.61v-51.89h64.61v51.89Zm-59.62-4.99h54.63v-41.91h-54.63v41.91Z"/>
  </g>
  <path class="cls-7" d="m28.65,41.37h10.78c18.26,0,33.09,14.83,33.09,33.09v6.51c0,3.81-3.1,6.91-6.91,6.91H2.47c-3.81,0-6.91-3.1-6.91-6.91v-6.51c0-18.26,14.83-33.09,33.09-33.09Z" transform="translate(-33.09 35.84) rotate(-39.02)"/>
  <polyline class="cls-9" points="29.75 40.55 34.04 64.62 10.73 56.47"/>
  <rect class="cls-8" x="2.91" y="117.36" width="41.37" height="61.11"/>
  <rect class="cls-5" x="2.91" y="115.12" width="41.37" height="4.99"/>
  <rect class="cls-5" x="2.91" y="175.98" width="41.37" height="4.99"/>
  <path class="cls-9" d="m12.19,96.29l6.13-1.96,7.01-6.42s7.01-4.18,7.21-4.22,4.86-6.31,4.86-6.31l5.03-5.3s3.48-.28,3.67-.39,5.9-6.13,5.9-6.13c0,0,5.28-2.96,5.81-3.15s8.59-8.52,8.59-8.52l4.02-4.14,4.39,4.75-1.32,7.87-44.88,36.58-6.17,4.31-4.64.65-.98-.34c-1.75-.61-3.1-2.03-3.62-3.81l-1.02-3.47Z"/>
  <polygon class="cls-5" points="11.82 99.71 10.24 94.99 16.88 92.77 21.82 88.66 27 83.65 32.54 80.3 35.61 72.08 44.21 71.07 48.07 65.34 54.93 62.47 59.51 57.16 64.62 53.09 68.14 47.01 72.45 49.5 68.46 56.4 62.81 60.91 57.96 66.61 51.37 69.36 47.06 75.75 39.22 76.68 36.6 83.66 30.06 87.63 25.08 92.43 19.35 97.2 11.82 99.71"/>
  <path class="cls-5" d="m19.81,106.61c-.33,0-.66-.02-1-.05-2.49-.26-4.74-1.48-6.31-3.43l-4.17-5.14C-3.99,82.79-1.64,60.39,13.57,48.06l8.51-6.89c15.21-12.32,37.6-9.97,49.93,5.23l4.17,5.14c1.58,1.95,2.3,4.39,2.04,6.89-.26,2.49-1.48,4.74-3.43,6.31l-49.09,39.77c-1.69,1.37-3.75,2.09-5.89,2.09Zm24.58-68.36c-6.75,0-13.54,2.22-19.18,6.79l-8.51,6.89c-6.33,5.13-10.29,12.42-11.14,20.53-.85,8.1,1.51,16.05,6.64,22.39l4.17,5.14c.74.91,1.79,1.48,2.96,1.61,1.18.13,2.32-.22,3.23-.96l49.09-39.77c.91-.74,1.48-1.79,1.61-2.96.12-1.17-.22-2.31-.96-3.23l-4.17-5.14c-6.02-7.43-14.84-11.29-23.73-11.29Z"/>
  <path class="cls-5" d="m135.8,66.17h-62.11l.47-.38c2.42-1.96,3.87-4.8,4.04-7.93.15-2.85-.91-5.64-2.74-7.83-6.94-8.37-16.7-13.59-27.53-14.73-6.63-.7-13.19.2-19.24,2.55-.01,0-.02,0-.03.01-6.49,2.52-12.41,6.7-17.16,12.46-3.78,4.58-6.51,9.98-7.96,15.74-3.29,13.03-.32,26.28,7.91,36.44l.1.13c.16.2.33.38.5.56h-1.57c-2.07,0-4.02,1.01-5.22,2.69l-5.27,11.2v61.95l5.01,10.74.26.45c1.2,1.69,3.15,2.69,5.21,2.69h26.14c2.05,0,3.99-.99,5.19-2.65l.31-.64c4.26,2.1,9.04,3.29,14.1,3.29,4.46,0,8.72-.92,12.58-2.58.75-.32,1.57.24,1.57,1.05v1.54h107.72v-126.75h-42.28Zm-84.43,24.39c3.2-.44,5.68-2.08,6.48-4.28l2.3-6.37,2.3,6.37c.79,2.19,3.27,3.83,6.47,4.27l1.44.2v.5h-.07v.53l-1.38.19c-3.21.44-5.69,2.08-6.48,4.28l-2.28,6.34-2.26-6.34c-.79-2.21-3.28-3.86-6.5-4.3l-5.08-.69,5.06-.7Zm-4.14-2.95l9.08-7.36-1.75,4.85c-.27.76-1.54,1.71-3.67,2.01l-3.66.51Zm28.95,11.79c0-1.28,1.04-2.33,2.33-2.33h49.08c1.28,0,2.33,1.04,2.33,2.33v36.43c0,1.28-1.04,2.33-2.33,2.33h-46.76c-2.57,0-4.65-2.08-4.65-4.65v-34.11Zm-6.78-12.3c-2.13-.3-3.39-1.25-3.67-2l-3.03-8.39h0s0-.01,0-.01c-.27-.72-.12-1.52.47-2l7.19-5.83v18.37l-.96-.13Zm1.28-33.71c.61.67.97,1.06,1.17,1.27.3.3.77,2.23.4,3.81-.27,1.16-.99,2.17-1.92,2.92l-47.15,38.21c-2.23,1.81-5.36,1.53-7.11-.63l-.1-.13s-.03-.04-.05-.07l3.62-1.21,5.79-4.82,4.97-4.79,6.62-4.02,2.58-6.88,7.78-.92,4.35-6.44,6.56-2.75,4.88-5.74,5.69-4.53,1.9-3.29Zm-53.16-1.12c1.14-1.23,2.38-2.38,3.7-3.46,1.07-.87,2.19-1.66,3.35-2.39,1.4-.88,3.26-.08,3.55,1.56l1.49,8.34c.31,1.75-1.38,3.19-3.06,2.6l-8.12-2.84c-1.6-.56-2.06-2.57-.9-3.82Zm-9.28,20.47c.4-3.78,1.38-7.4,2.88-10.78.5-1.11,1.76-1.67,2.91-1.26l23.74,8.31-4.35-24.43c-.22-1.21.54-2.38,1.73-2.67,2.73-.68,5.54-1.04,8.4-1.04,1.25,0,2.51.07,3.77.2,6.42.67,12.41,3.02,17.46,6.77.95.71,1.22,2.02.63,3.04l-1.11,1.93-5.05,4.02-4.57,5.28-6.88,2.88-3.83,5.67-8.65,1.02-3.11,8.31-5.45,3.31-5.21,5.03-4.87,4.05-2.24.75c-1.11.37-2.33-.15-2.84-1.2-2.87-5.91-4.06-12.51-3.35-19.2Zm.05,40.31l1.83-3.92c.1-.08.23-.13.37-.13h26.14c.13,0,.26.05.36.13l1.86,3.92c.37.77-.2,1.66-1.05,1.66H9.34c-.85,0-1.41-.88-1.05-1.65Zm28.7,73.92c-.1.08-.23.13-.37.13H10.49c-.14,0-.27-.05-.37-.13l-4-8.58c3.84-.18,12.75-.54,13.38.09.81.81,8.99,0,8.99,0h1c2.07,3.14,4.67,5.89,7.68,8.13l-.17.37Zm4.38-9.25l-1.66,3.5c-6.6-5.38-10.54-13.9-9.51-23.26.84-7.67,5.09-14.37,11.17-18.58v38.34Zm0-47.17c0,1.22-.63,2.37-1.67,3-2.15,1.3-4.14,2.84-5.92,4.6v-.02c-.06.07-.14.14-.2.21,0,0-.02.02-.02.02-7.44,7.43-18.8,18.78-25.42,25.42-.86.86-2.32.25-2.32-.96v-39.97c0-1.28,1.04-2.33,2.33-2.33h30.91c1.28,0,2.33,1.04,2.33,2.33v7.71Zm.71-24.26l-.27-.45c-1.2-1.66-3.14-2.66-5.19-2.66h-8.62l10.02-8.12c.95-.77,2.18-1.12,3.4-.95l9.49,1.3c2.15.29,3.42,1.25,3.69,2.01l2.99,8.38c.35.98,1.35,1.61,2.55,1.62h0c1.2,0,2.2-.63,2.56-1.61l3.01-8.37c.27-.76,1.54-1.71,3.67-2.01l.9-.12v34.16c0,1.27-1.28,2.11-2.46,1.65-4.68-1.83-9.89-2.6-15.34-1.98-1.82.21-3.59.57-5.31,1.08v-13.16l-5.11-10.77Zm28.29,76.63c-4.08,2.64-8.94,4.17-14.15,4.17-4.16,0-8.1-.98-11.59-2.72l2.56-5.35v-42.67c1.93-.72,3.97-1.22,6.08-1.45,6.29-.7,12.2.87,17.03,3.96v5.1h.07v38.96Zm5.81-38.91c3.87,4.57,6.21,10.47,6.21,16.91s-2.34,12.34-6.21,16.91v-33.81Zm53.81,42.37c-6.66-2.04-11.52-8.25-11.52-15.57s4.86-13.53,11.52-15.57v31.14Zm0-38.93c0,1.02-.66,1.92-1.64,2.21-3.03.92-5.78,2.48-8.11,4.51l.02-.04c-.08.08-.16.17-.24.25-.7.63-1.36,1.29-1.97,2-7.62,7.78-22.14,23.05-28.74,30.01-.43.45-1.03.71-1.65.71h-9.15s-.03,0-.03,0c-1.25,0-1.83-1.55-.9-2.39,6.52-5.86,10.63-14.35,10.63-23.79,0-5.21-1.25-10.12-3.47-14.47-.58-1.13.21-2.48,1.48-2.48h41.44c1.28,0,2.33,1.04,2.33,2.33v1.16Zm0-58.53c0,1.28-1.04,2.33-2.33,2.33h-42.48c0-1.16-.92-2.1-2.24-2.29l-6.77-.94v-13.73c0-1.28,1.04-2.33,2.33-2.33h49.15c1.28,0,2.33,1.04,2.33,2.33v14.62Zm5.81,10.47c0-1.28,1.04-2.33,2.33-2.33h34.07v38.76c0,1.28-1.04,2.33-2.33,2.33h-31.75c-1.28,0-2.33-1.04-2.33-2.33v-36.43Zm0,87.65v-32.47c8.49.55,15.24,7.61,15.24,16.23s-6.75,15.69-15.24,16.23Zm36.47-2.27c0,1.28-1.04,2.33-2.33,2.33h-17.76c-.94,0-1.4-1.1-.79-1.8,3.39-3.88,5.46-8.94,5.46-14.49,0-11.14-8.29-20.36-19.03-21.86-1.16-.16-2.02-1.13-2.02-2.3v-.36c0-1.28,1.04-2.33,2.33-2.33h31.82c1.28,0,2.33,1.04,2.33,2.33v38.48Zm0-95.84c0,1.28-1.04,2.33-2.33,2.33h-31.82c-1.28,0-2.33-1.04-2.33-2.33v-14.62c0-1.28,1.04-2.33,2.33-2.33h31.82c1.28,0,2.33,1.04,2.33,2.33v14.62Z"/>
  <g>
    <circle class="cls-4" cx="56.22" cy="160.92" r="29.09"/>
    <path class="cls-5" d="m56.22,192.5c-17.41,0-31.58-14.17-31.58-31.58s14.17-31.58,31.58-31.58,31.58,14.17,31.58,31.58-14.17,31.58-31.58,31.58Zm0-58.17c-14.66,0-26.59,11.93-26.59,26.59s11.93,26.59,26.59,26.59,26.59-11.93,26.59-26.59-11.93-26.59-26.59-26.59Z"/>
  </g>
  <g>
    <circle class="cls-4" cx="134.75" cy="170.81" r="19.19"/>
    <path class="cls-5" d="m134.75,192.5c-11.96,0-21.69-9.73-21.69-21.69s9.73-21.69,21.69-21.69,21.69,9.73,21.69,21.69-9.73,21.69-21.69,21.69Zm0-38.39c-9.21,0-16.7,7.49-16.7,16.7s7.49,16.7,16.7,16.7,16.7-7.49,16.7-16.7-7.49-16.7-16.7-16.7Z"/>
  </g>
  <polygon class="cls-5" points="30 178.83 38.07 183.65 39.45 188.56 17.72 191.11 6.89 187.98 5.26 183.43 5.26 179.52 30 178.83"/>
  <path class="cls-5" d="m37.24,68.39l-27.34-9.56c-1.3-.45-1.98-1.88-1.53-3.18s1.88-1.98,3.18-1.53l19.28,6.75-3.54-19.88c-.24-1.36.66-2.65,2.02-2.89,1.36-.24,2.65.66,2.89,2.02l5.03,28.27Z"/>
  <path class="cls-5" d="m101.53,40.41c-1.38,0-2.49-1.12-2.49-2.49V2.49c0-1.38,1.12-2.49,2.49-2.49s2.49,1.12,2.49,2.49v35.42c0,1.38-1.12,2.49-2.49,2.49Z"/>
  <g>
    <line class="cls-5" x1="115.12" y1="45.26" x2="136.79" y2="23.58"/>
    <path class="cls-5" d="m115.12,47.75c-.64,0-1.28-.24-1.76-.73-.97-.97-.97-2.55,0-3.53l21.67-21.67c.97-.97,2.55-.97,3.53,0,.97.97.97,2.55,0,3.53l-21.67,21.67c-.49.49-1.12.73-1.76.73Z"/>
  </g>
  <path class="cls-5" d="m141.04,54.01h-8.88c-1.38,0-2.49-1.12-2.49-2.49s1.12-2.49,2.49-2.49h8.88c1.38,0,2.49,1.12,2.49,2.49s-1.12,2.49-2.49,2.49Z"/>
  <g>
    <path class="cls-2" d="m154.74,115.51l2.36,13.6c.44,2.54,1.98,4.52,3.95,5.09l10.56,3.04c.76.22.76,1.62,0,1.84l-10.56,3.03c-1.97.57-3.52,2.55-3.96,5.1l-2.35,13.58c-.17.98-1.26.98-1.43,0l-2.33-13.59c-.44-2.56-1.99-4.55-3.97-5.12l-10.55-3c-.76-.22-.76-1.62,0-1.84l10.54-3.03c1.97-.57,3.51-2.55,3.95-5.1l2.36-13.61c.17-.98,1.25-.98,1.42,0Z"/>
    <path class="cls-5" d="m154.03,163.28h0c-1.21,0-2.21-.9-2.43-2.19l-2.33-13.59c-.32-1.89-1.39-3.35-2.73-3.73l-10.55-3c-1.1-.31-1.84-1.35-1.84-2.59,0-1.24.73-2.28,1.83-2.6l10.54-3.03c1.33-.38,2.39-1.84,2.72-3.72l2.36-13.61c.22-1.29,1.22-2.18,2.43-2.18s2.21.9,2.43,2.18h0l2.36,13.6c.33,1.87,1.39,3.33,2.72,3.71l10.56,3.04c1.09.32,1.83,1.36,1.83,2.59s-.74,2.28-1.83,2.6l-10.56,3.03c-1.33.38-2.39,1.84-2.72,3.72l-2.35,13.58c-.22,1.29-1.22,2.18-2.43,2.18Zm-14.43-25.12l7.9,2.24c2.62.75,4.67,3.3,5.22,6.5l1.33,7.74,1.34-7.73c.56-3.24,2.55-5.72,5.2-6.48l7.92-2.28-7.92-2.28c-2.64-.76-4.63-3.24-5.19-6.47l-1.36-7.8-1.35,7.8c-.56,3.23-2.55,5.71-5.19,6.47l-7.88,2.27Z"/>
  </g>
  <g>
    <path class="cls-2" d="m61.07,77.29l3.03,8.39c.57,1.57,2.54,2.79,5.07,3.14l13.54,1.88c.98.14.98,1,0,1.13l-13.55,1.87c-2.53.35-4.51,1.57-5.08,3.14l-3.01,8.37c-.22.61-1.61.6-1.83,0l-2.99-8.38c-.56-1.58-2.55-2.81-5.1-3.15l-13.54-1.85c-.98-.13-.98-1,0-1.13l13.52-1.87c2.53-.35,4.51-1.57,5.07-3.14l3.03-8.39c.22-.6,1.61-.6,1.83,0Z"/>
    <path class="cls-5" d="m60.16,107.4h0c-1.2,0-2.2-.64-2.55-1.62l-2.99-8.38c-.27-.76-1.54-1.72-3.69-2.01l-13.54-1.85c-1.32-.18-2.24-1.12-2.24-2.29s.92-2.11,2.24-2.3l13.52-1.87c2.13-.3,3.4-1.25,3.67-2.01l3.03-8.39c.35-.97,1.35-1.61,2.55-1.61h0c1.2,0,2.2.63,2.56,1.61h0s3.03,8.39,3.03,8.39c.27.76,1.54,1.71,3.67,2l13.54,1.88c1.32.18,2.24,1.13,2.24,2.3,0,1.17-.92,2.11-2.24,2.29l-13.55,1.87c-2.13.29-3.4,1.25-3.67,2.01l-3.01,8.37c-.35.98-1.35,1.61-2.56,1.61Zm-13.84-16.16l5.07.69c3.22.44,5.72,2.09,6.5,4.3l2.26,6.34,2.28-6.34c.79-2.2,3.27-3.84,6.48-4.28l5.14-.71-5.13-.71c-3.2-.44-5.68-2.08-6.47-4.27l-2.3-6.37-2.3,6.37c-.79,2.2-3.27,3.83-6.48,4.28l-5.05.7Z"/>
  </g>
</svg>