<?xml version="1.0" encoding="UTF-8"?>
<svg id="Camada_1" data-name="Camada 1" xmlns="http://www.w3.org/2000/svg" viewBox="0 0 194.42 72.14">
  <path fill="#ffffff" class="cls-1" d="m0,69.74c0-1.01.74-1.66,2.21-1.75,5.7-.46,5.7-3.59,5.7-11.13V16.38c0-7.54,0-10.67-5.7-11.13-1.47-.09-2.21-.74-2.21-1.75s.83-1.66,2.21-1.66h26.13c18.68,0,34.14,8.37,34.14,33.68,0,20.24-9.85,35.88-33.58,35.88H2.21c-1.38,0-2.21-.64-2.21-1.66Zm18.86-3.22c2.3.46,5.61.92,8.65.92,18.22,0,24.38-18.13,24.38-30.92S45.91,6.17,26.77,6.17c-2.58,0-5.34.28-7.82.83-1.01.28-1.47.92-1.47,1.84v55.85c0,.92.46,1.66,1.38,1.84Z"/>
  <path fill="#ffffff" class="cls-1" d="m88.33,22.82c12.24,0,20.79,9.66,20.79,24.2s-8.56,25.12-20.79,25.12-20.79-10.4-20.79-25.12,8.56-24.2,20.79-24.2Zm12.05,25.58c-1.84-8.74-7.45-23.37-17.76-21.16-8,1.66-8.19,10.95-6.72,18.22,1.84,8.37,7.73,24.2,18.31,21.9,8.46-1.75,7.54-12.79,6.16-18.95Z"/>
  <path fill="#ffffff" class="cls-1" d="m107.74,69.74c0-1.01.74-1.66,2.21-1.75,5.7-.46,5.7-3.59,5.7-11.13V16.38c0-7.54,0-10.67-5.7-11.13-1.47-.09-2.21-.74-2.21-1.75s.83-1.66,2.21-1.66h26.22c12.79,0,20.33,7.18,20.33,17.94,0,11.59-9.11,20.79-21.25,20.79-2.48,0-5.34-.37-8.28-.74-1.1-.18-1.75.37-1.75,1.47v15.55c0,7.54,0,10.67,5.7,11.13,1.47.09,2.21.74,2.21,1.75s-.83,1.66-2.21,1.66h-20.98c-1.38,0-2.21-.64-2.21-1.66Zm18.95-33.68c2.21.46,4.32.64,5.61.64,8.37,0,13.43-7.36,13.43-15.92s-5.34-14.63-13.71-14.63c-1.1,0-3.13.09-5.34.55-1.01.18-1.47.92-1.47,1.84v25.67c0,.92.46,1.56,1.47,1.84Z"/>
  <path fill="#ffffff" class="cls-1" d="m177.39,22.82c11.23,0,16.47,8.74,17.02,17.76.09,1.1-.55,1.66-1.56,1.66h-26.13c-1.01,0-1.66.55-1.56,1.66.46,8.56,4.69,19.6,15.09,19.6,6.62,0,9.66-4.51,11.68-9.2.37-.92,1.01-1.38,1.66-1.2.64.18.92.83.74,1.84-1.66,7.45-7.18,17.21-18.03,17.21-12.51,0-18.4-12.79-18.4-24.29,0-10.86,5.24-25.03,19.51-25.03Zm-12.05,14.35c-.28,1.1.37,1.75,1.47,1.75h15.64c1.1,0,1.75-.64,1.56-1.66-.55-5.24-3.13-10.4-8.83-10.4s-8.93,5.52-9.85,10.31ZM177.94,1.38c.28-.92,1.01-1.38,1.93-1.38h8.37c1.38,0,1.84.92.92,2.02l-13.34,15.09c-1.01,1.2-3.4,1.56-2.58-.92l4.69-14.81Z"/>
</svg>